<?xml version="1.0" encoding="utf-8"?>
<!-- Generator: Adobe Illustrator 16.0.4, SVG Export Plug-In . SVG Version: 6.00 Build 0)  -->
<!DOCTYPE svg PUBLIC "-//W3C//DTD SVG 1.1//EN" "http://www.w3.org/Graphics/SVG/1.1/DTD/svg11.dtd">
<svg version="1.1" id="Layer_1" xmlns="http://www.w3.org/2000/svg" xmlns:xlink="http://www.w3.org/1999/xlink" x="0px" y="0px"
	 width="151.419px" height="28.567px" viewBox="0 0 151.419 28.567" enable-background="new 0 0 151.419 28.567"
	 xml:space="preserve">
<g>
	<path fill="#FFFFFF" d="M15.938,0.501v5.514H6.281v5.479h8.921v5.514H6.281v11.059H0V0.501H15.938z"/>
	<path fill="#FFFFFF" d="M17.019,14.267c0-3.986,1.358-7.361,4.076-10.123C23.812,1.382,27.087,0,30.918,0
		c3.853,0,7.127,1.376,9.823,4.126c2.695,2.752,4.043,6.131,4.043,10.141c0,4.032-1.326,7.424-3.976,10.174
		c-2.651,2.752-5.947,4.127-9.89,4.127c-4.032,0-7.356-1.364-9.974-4.094C18.327,21.746,17.019,18.343,17.019,14.267z
		 M23.802,14.267c0,1.448,0.222,2.768,0.668,3.959c0.445,1.192,1.225,2.201,2.339,3.024c1.114,0.824,2.483,1.236,4.11,1.236
		c2.339,0,4.104-0.802,5.295-2.405c1.191-1.604,1.788-3.542,1.788-5.814c0-2.25-0.607-4.182-1.821-5.797
		c-1.214-1.615-2.968-2.422-5.262-2.422c-2.272,0-4.026,0.807-5.263,2.422C24.42,10.085,23.802,12.017,23.802,14.267z"/>
	<path fill="#FFFFFF" d="M53.635,0.501v27.564h-6.281V0.501H53.635z"/>
	<path fill="#FFFFFF" d="M71.701,0.501l11.127,27.564h-6.75l-2.038-5.513H63.548l-2.038,5.513h-6.749L65.887,0.501H71.701z
		 M71.902,17.04l-3.074-8.02h-0.066l-3.074,8.02H71.902z"/>
	<path opacity="0.6" fill="#FFFFFF" d="M83.879,15.101h3.26v3.518h1.989v2.486h-1.989v3.002c0,0.884,0.222,1.308,0.737,1.308
		c0.424,0,0.811-0.295,0.811-0.295l0.81,2.634c0,0-1.05,0.59-2.394,0.59c-2.597,0-3.224-1.935-3.224-3.61v-3.628h-1.362v-2.486
		h1.362V15.101z"/>
	<path opacity="0.6" fill="#FFFFFF" d="M90.665,18.618h3.26v1.362h0.036c0,0,1.032-1.639,2.892-1.639
		c1.216,0,2.063,0.589,2.063,0.589l-1.363,2.763c0,0-0.607-0.516-1.694-0.516c-1.694,0-1.934,1.677-1.934,1.915v4.973h-3.26V18.618z
		"/>
	<path opacity="0.6" fill="#FFFFFF" d="M103.424,18.342c1.271,0,2.32,0.423,3.094,1.179v-0.902h3.26v9.447h-3.223v-1.068h-0.037
		c-0.699,0.774-1.805,1.346-3.094,1.346c-2.763,0-4.696-2.229-4.696-4.992C98.728,20.589,100.662,18.342,103.424,18.342z
		 M104.4,25.562c1.271,0,2.192-0.922,2.192-2.211c0-1.307-0.977-2.229-2.192-2.229c-1.233,0-2.21,0.922-2.21,2.229
		C102.19,24.64,103.075,25.562,104.4,25.562z"/>
	<path opacity="0.6" fill="#FFFFFF" d="M114.667,23.333c0,1.307,1.014,2.339,2.247,2.339c0.977,0,1.584-0.442,1.584-0.442
		l1.105,2.266c0,0-1.068,0.848-3.168,0.848c-2.726,0-5.23-2.211-5.23-4.973c0-2.781,2.486-5.028,5.23-5.028
		c2.1,0,3.168,0.884,3.168,0.884l-1.105,2.229c0,0-0.607-0.441-1.584-0.441C115.681,21.013,114.667,22.044,114.667,23.333z"/>
	<path opacity="0.6" fill="#FFFFFF" d="M127.113,23.13l4.937,4.936h-4.199l-3.775-3.775v3.775h-3.26V12.228h3.26v9.688l3.297-3.297
		h4.235L127.113,23.13z"/>
	<path opacity="0.6" fill="#FFFFFF" d="M134.837,23.793c0,1.455,1.216,1.952,2.044,1.952c1.05,0,1.511-0.202,2.303-1.05l2.357,1.179
		c-1.068,1.787-2.8,2.469-4.899,2.469c-2.854,0-5.193-2.248-5.193-4.992c0-2.762,2.339-5.009,5.193-5.009
		c2.873,0,5.064,1.694,5.064,5.009c0,0.129,0,0.332-0.018,0.442H134.837z M138.521,21.988c-0.147-0.995-0.829-1.528-1.787-1.528
		c-1.123,0-1.749,0.662-1.805,1.528H138.521z"/>
	<path opacity="0.6" fill="#FFFFFF" d="M143.168,18.618h3.26v1.362h0.036c0,0,1.032-1.639,2.892-1.639
		c1.216,0,2.063,0.589,2.063,0.589l-1.363,2.763c0,0-0.607-0.516-1.694-0.516c-1.694,0-1.934,1.677-1.934,1.915v4.973h-3.26V18.618z
		"/>
</g>
</svg>
